<svg width="237" height="54" xmlns="http://www.w3.org/2000/svg"><path d="M49.594 35.79c-2.383 4.104-6.547 6.841-11.172 7.53.213-.18.418-.367.622-.556l.084-.075c.266-.25.521-.51.77-.775.074-.08.145-.161.218-.241a18.515 18.515 0 0 0 .744-.877c.16-.201.314-.407.464-.615.065-.09.132-.177.194-.268.202-.29.397-.584.581-.886l.014-.02c.19-.312.367-.63.536-.954.048-.09.092-.184.14-.276a18.982 18.982 0 0 0 .483-1.043c.101-.239.196-.48.286-.722.038-.103.078-.204.115-.306.12-.341.23-.684.33-1.032l.002-.008c.1-.35.185-.707.262-1.065.024-.108.042-.216.063-.324a16.307 16.307 0 0 0 .187-1.147c.033-.256.06-.515.081-.774.01-.115.022-.23.029-.345.024-.37.038-.743.038-1.117 0-.267-.013-.544-.038-.83-.009-.094-.026-.195-.037-.292a11.725 11.725 0 0 0-.077-.588c-.02-.122-.05-.25-.075-.375-.036-.185-.07-.368-.115-.559-.032-.137-.074-.281-.112-.422-.049-.187-.096-.371-.153-.563-.045-.15-.099-.306-.149-.46a16.94 16.94 0 0 0-.192-.577c-.056-.161-.122-.328-.184-.492-.075-.197-.149-.394-.231-.597-.07-.17-.147-.347-.221-.522-.088-.203-.175-.407-.27-.617-.081-.18-.17-.366-.257-.55a36.77 36.77 0 0 0-.308-.64c-.094-.19-.195-.385-.295-.58a38.863 38.863 0 0 0-.676-1.268 51.531 51.531 0 0 0-.751-1.317 78.063 78.063 0 0 0-.827-1.369 68.096 68.096 0 0 0-.901-1.419 91.617 91.617 0 0 0-1.501-2.233 108.78 108.78 0 0 0-1.643-2.312c-.068-.092-.13-.18-.198-.273 5.59-2.713 11.324-4.815 13.752-5.667.945 5.035 4.153 23.94.388 30.417M27.86 30.57l-2.123.69c.034.103 2.378 7.458.509 14.037-2.353-.079-4.688-.655-6.764-1.74-5.13-2.697-8.318-7.93-8.318-13.662 0-3.82 3.307-10.252 9.561-18.598 2.514-3.35 4.87-6.151 6.074-7.55a150.034 150.034 0 0 1 6.072 7.55c6.255 8.345 9.562 14.776 9.562 18.598a15.3 15.3 0 0 1-.579 4.173 15.466 15.466 0 0 1-6.798 8.953c-.305.188-.618.366-.938.534a15.601 15.601 0 0 1-5.5 1.655c1.704-6.952-.613-14.199-.758-14.64M4.002 35.79c-3.764-6.477-.558-25.382.387-30.417 2.428.852 8.161 2.955 13.752 5.667-.074.1-.141.198-.214.297-.173.237-.342.471-.51.705-.208.292-.416.58-.618.868-.157.223-.312.446-.465.666a89.898 89.898 0 0 0-1.954 2.935 75.627 75.627 0 0 0-1.332 2.176c-.11.19-.221.379-.328.566a51.285 51.285 0 0 0-1.093 2.012c-.091.179-.183.357-.269.53-.116.234-.224.461-.33.687-.08.17-.162.34-.237.506-.102.225-.195.442-.288.66-.069.163-.14.326-.205.485-.087.212-.165.42-.243.627-.059.155-.12.312-.174.464-.073.205-.136.403-.2.602-.048.146-.099.294-.142.437-.059.198-.108.39-.158.582-.036.135-.076.273-.107.405-.046.196-.081.384-.118.573-.024.12-.053.243-.072.36-.034.205-.056.4-.078.596-.011.095-.028.194-.036.287a9.48 9.48 0 0 0-.039.83c0 .373.016.746.039 1.116.007.116.019.23.029.346a17.087 17.087 0 0 0 .266 1.916c.022.11.041.22.065.33.077.357.162.712.26 1.062l.01.024c.096.342.205.68.323 1.015.037.105.078.209.117.313a17.144 17.144 0 0 0 .766 1.755c.048.095.094.19.142.283.17.322.346.64.535.95l.022.034c.182.297.374.588.574.875.063.09.129.178.194.268a17.702 17.702 0 0 0 1.21 1.493c.072.08.142.16.215.238.25.266.506.527.772.777l.076.068c.206.191.414.38.63.562-4.626-.689-8.79-3.427-11.174-7.53M51.152 3.68l-.254-1.221-1.19.393c-.082.027-8.035 2.66-15.61 6.375a146.542 146.542 0 0 0-6.465-7.913L26.798.38l-.835.935c-.032.035-3.034 3.404-6.467 7.913C11.921 5.513 3.97 2.879 3.887 2.852l-1.19-.393-.255 1.221C2.23 4.7-2.693 28.71 2.066 36.9c3.175 5.467 9.106 8.812 15.417 8.812.412 0 .826-.026 1.24-.055a18.09 18.09 0 0 0 6.7 1.85c-.82 1.769-2.023 3.405-3.77 4.728L23.009 54c2.392-1.812 3.92-4.072 4.867-6.466a18.118 18.118 0 0 0 6.997-1.877c.414.029.828.055 1.24.055 6.311 0 12.242-3.346 15.416-8.813 4.76-8.188-.164-32.2-.376-33.219M101 12.034c-.69.03-1.298.135-1.822.315-.525.18-1.05.488-1.575.922-.524.435-1.08 1.02-1.664 1.754a49.699 49.699 0 0 0-2.047 2.81L86.29 29.44v10.03c0 .96.06 1.731.18 2.316.12.584.367 1.042.742 1.371.375.33.907.555 1.597.675s1.604.195 2.744.225V45h-15.7v-.944c1.17-.06 2.1-.158 2.79-.293.689-.134 1.206-.382 1.551-.742s.57-.87.675-1.529c.105-.66.158-1.544.158-2.654v-8.904l-6.703-9.85a212.64 212.64 0 0 0-3.127-4.34c-.795-1.063-1.478-1.866-2.047-2.406-.57-.54-1.088-.891-1.552-1.056-.466-.165-.997-.248-1.597-.248V11h14.351v1.034h-1.26c-1.59.09-2.384.57-2.384 1.44 0 .69.3 1.469.9 2.338L85.21 27.19l7.333-11.603c.48-.69.72-1.319.72-1.888 0-.6-.255-1.027-.765-1.282-.51-.255-1.44-.383-2.789-.383V11H101v1.034zM140.665 45H113v-.945c.928-.06 1.684-.163 2.268-.314.584-.15 1.033-.39 1.348-.72.314-.33.53-.78.65-1.349.12-.57.18-1.304.18-2.203V16.622c0-.9-.053-1.634-.157-2.204-.105-.57-.323-1.019-.65-1.35-.331-.329-.787-.569-1.37-.719-.585-.15-1.34-.254-2.269-.315V11h27.216l.09 7.376h-1.213c-.24-1.17-.51-2.106-.809-2.812-.3-.703-.726-1.25-1.279-1.64-.555-.39-1.288-.645-2.201-.765s-2.088-.18-3.525-.18h-6.916c-.69 0-1.145.106-1.37.315-.225.21-.337.69-.337 1.439V26.11h7.859c1.047 0 1.9-.06 2.56-.18.658-.12 1.19-.352 1.594-.697.404-.344.711-.832.921-1.462.21-.63.405-1.468.584-2.518h1.212v11.918h-1.212c-.18-1.08-.375-1.94-.584-2.586-.21-.644-.51-1.14-.898-1.484-.39-.345-.914-.577-1.572-.697-.66-.12-1.527-.18-2.605-.18h-7.859v12.683c0 .51.03.884.09 1.123.059.241.164.421.314.54.24.15.815.278 1.73.383.912.105 1.997.157 3.255.157h1.437c1.826 0 3.36-.09 4.603-.27 1.243-.18 2.306-.524 3.189-1.034a7.767 7.767 0 0 0 2.313-2.07c.658-.868 1.303-2.007 1.931-3.417H143L140.665 45zm43.562 0-22.954-28.583v20.345c0 1.336.068 2.42.205 3.254.136.835.386 1.495.75 1.98.363.486.863.835 1.5 1.047.635.213 1.454.35 2.454.41v.955H154v-.956c1.06-.09 1.916-.234 2.568-.432.652-.197 1.152-.538 1.5-1.024.348-.485.583-1.145.705-1.98.12-.834.181-1.918.181-3.254V13.914c-.515-.606-.954-1.1-1.318-1.48a4.573 4.573 0 0 0-1.09-.864 3.953 3.953 0 0 0-1.137-.41 7.572 7.572 0 0 0-1.409-.113V10h8.864l19.954 25.169V17.646c0-3.155-.5-5.098-1.5-5.826a4.253 4.253 0 0 0-1.295-.523c-.47-.106-1.19-.189-2.16-.25V10H190v1.047c-.97.061-1.69.167-2.16.318a4.26 4.26 0 0 0-1.204.592c-1.03.668-1.545 2.564-1.545 5.689V45h-.864zm39.285-13.29-6.016-14.337-6.015 14.337h12.03zM237 45h-13.26v-.955c.455 0 .835-.008 1.138-.023.304-.015.555-.046.753-.091a9.59 9.59 0 0 0 .524-.137 2.03 2.03 0 0 0 .455-.204c.243-.152.433-.342.57-.57.137-.227.205-.462.205-.705 0-.85-.335-2.033-1.002-3.55l-2.188-4.962h-13.58l-2.415 6.054a7.904 7.904 0 0 0-.296 1.024 4.81 4.81 0 0 0-.114 1.024c0 .699.273 1.229.82 1.593.547.364 1.458.547 2.735.547V45H201v-.955c.638-.03 1.185-.137 1.64-.32.456-.181.912-.568 1.367-1.16.456-.592.95-1.44 1.481-2.549a123.002 123.002 0 0 0 2.028-4.528L218.316 10h1.003l12.987 29.493c.426.971.798 1.745 1.117 2.32.319.578.645 1.025.98 1.344.334.319.706.54 1.116.66.41.121.904.198 1.481.228V45z" fill="#fff" fill-rule="evenodd"/></svg>